Title: Love Is All You Need Aka Den skaldede frisor

Country:  Denmark/2012

Language:  Danish, English, Italian

Subtitle:  Danish

Director: Susanne Bier

Writers: Anders Thomas Jensen (screenplay), Susanne Bier (story)

Stars: Pierce Brosnan, Kim Bodnia and Trine Dyrholm

Plot: A hairdresser who has lost her hair to cancer finds out her husband is having an affair, travels to Italy for her daughter's wedding and meets a widower who still blames the world for the loss of his wife. 

Trailer: 
http://www.bandes-annonces.fr/film-2012/bande-annonce-loveisallyouneed.html

Imdb: 
http://www.imdb.com/title/tt1854236/?ref_=sr_1 

Media Info:

General
Complete name                            : Love.Is.All.You.Need.2012.DVDRip.AC3.XviD.HORiZON-ArtSubs
Format                                   : AVI
Format/Info                              : Audio Video Interleave
File size                                : 1.56 GiB
Duration                                 : 1h 51mn
Overall bit rate                         : 2 008 Kbps
Writing application                      : FairUse Wizard - http://fairusewizard.com
Writing library                          : The best and REALLY easy backup tool

Video
ID                                       : 0
Format                                   : MPEG-4 Visual
Format profile                           : Advanced Simple@L5
Format settings, BVOP                    : 1
Format settings, QPel                    : No
Format settings, GMC                     : No warppoints
Format settings, Matrix                  : Default (MPEG)
Muxing mode                              : Packed bitstream
Codec ID                                 : XVID
Codec ID/Hint                            : XviD
Duration                                 : 1h 51mn
Bit rate                                 : 1 550 Kbps
Width                                    : 712 pixels
Height                                   : 296 pixels
Display aspect ratio                     : 2.40:1
Frame rate                               : 25.000 fps
Color space                              : YUV
Chroma subsampling                       : 4:2:0
Bit depth                                : 8 bits
Scan type                                : Progressive
Compression mode                         : Lossy
Bits/(Pixel*Frame)                       : 0.294
Stream size                              : 1.20 GiB (77%)
Writing library                          : XviD 1.2.1 (UTC 2008-12-04)

Audio
ID                                       : 1
Format                                   : AC-3
Format/Info                              : Audio Coding 3
Mode extension                           : CM (complete main)
Format settings, Endianness              : Big
Codec ID                                 : 2000
Duration                                 : 1h 51mn
Bit rate mode                            : Constant
Bit rate                                 : 448 Kbps
Channel(s)                               : 6 channels
Channel positions                        : Front: L C R, Side: L R, LFE
Sampling rate                            : 48.0 KHz
Bit depth                                : 16 bits
Compression mode                         : Lossy
Stream size                              : 356 MiB (22%)
Alignment                                : Split accross interleaves
Interleave, duration                     : 40 ms (1.00 video frame)
Interleave, preload duration             : 500 ms

